<?xml version="1.0" standalone="no"?>
<!DOCTYPE svg PUBLIC "-//W3C//DTD SVG 20010904//EN"
 "http://www.w3.org/TR/2001/REC-SVG-20010904/DTD/svg10.dtd">
<svg version="1.0" xmlns="http://www.w3.org/2000/svg"
 width="512.000000pt" height="512.000000pt" viewBox="0 0 512.000000 512.000000"
 preserveAspectRatio="xMidYMid meet">

<g transform="translate(0.000000,512.000000) scale(0.100000,-0.100000)"
fill="#000000" stroke="none">
<path d="M2334 5110 c-488 -48 -928 -218 -1321 -511 -126 -94 -398 -366 -492
-492 -263 -352 -426 -739 -493 -1172 -31 -200 -31 -550 0 -750 67 -433 230
-820 493 -1172 94 -126 366 -398 492 -492 352 -263 739 -426 1172 -493 200
-31 550 -31 750 0 433 67 820 230 1172 493 126 94 398 366 492 492 263 352
426 739 493 1172 28 182 31 550 5 718 -25 160 -64 328 -107 457 -39 119 -112
296 -128 312 -13 13 -135 -49 -129 -65 3 -7 26 -61 51 -120 77 -182 136 -396
167 -612 21 -139 18 -511 -5 -660 -63 -411 -217 -777 -467 -1112 -94 -126
-336 -368 -462 -462 -335 -250 -701 -404 -1112 -467 -168 -26 -522 -26 -690 0
-411 63 -777 217 -1112 467 -126 94 -368 336 -462 462 -250 335 -404 701 -467
1112 -26 168 -26 522 0 690 63 411 217 777 467 1112 94 126 336 368 462 462
335 250 701 404 1112 467 149 23 521 26 660 5 216 -31 430 -90 612 -167 59
-25 113 -48 120 -51 16 -6 78 116 65 129 -16 16 -193 89 -312 128 -130 44
-301 83 -452 105 -125 19 -449 27 -574 15z"/>
<path d="M4220 5004 c-170 -31 -298 -100 -412 -223 -179 -193 -231 -478 -131
-724 70 -172 208 -310 381 -381 183 -74 407 -62 583 30 78 41 193 143 241 212
89 130 122 238 122 402 0 108 -4 136 -27 205 -37 111 -90 197 -173 279 -129
130 -278 195 -459 201 -55 2 -111 2 -125 -1z m227 -262 l52 -17 -31 -73 c-27
-64 -33 -72 -52 -65 -12 3 -39 9 -61 12 l-40 6 -3 78 -3 77 43 -1 c24 0 66 -8
95 -17z m-226 -67 c10 -33 19 -64 19 -70 0 -5 -25 -22 -55 -36 l-54 -27 -47
60 c-44 56 -45 60 -28 73 31 24 118 65 133 62 7 -1 22 -29 32 -62z m421 -52
c83 -93 122 -198 116 -320 -1 -45 -6 -85 -10 -88 -4 -4 -39 0 -78 10 l-70 17
0 72 c0 80 -28 153 -74 195 -14 14 -26 29 -26 34 0 11 90 117 100 117 4 0 23
-17 42 -37z"/>
<path d="M2550 4685 l0 -75 69 0 c78 0 81 3 81 91 0 44 -2 47 -31 53 -17 3
-51 6 -75 6 l-44 0 0 -75z"/>
<path d="M2312 4743 c-20 -4 -21 -9 -16 -46 14 -111 9 -102 61 -99 92 6 93 6
93 66 0 81 -4 86 -64 85 -28 -1 -61 -4 -74 -6z"/>
<path d="M2807 4734 c-3 -5 -6 -38 -8 -74 l-4 -65 59 -8 c32 -5 64 -6 71 -3 7
2 15 27 19 55 4 28 9 58 12 65 3 8 -2 16 -13 20 -39 11 -131 18 -136 10z"/>
<path d="M2090 4708 c-25 -6 -47 -12 -49 -14 -2 -1 4 -35 14 -74 12 -48 22
-70 30 -66 7 2 33 7 57 11 70 11 71 12 58 88 -13 75 -15 76 -110 55z"/>
<path d="M1851 4639 c-30 -10 -56 -20 -58 -22 -3 -3 43 -126 50 -133 2 -2 31
6 65 17 69 23 70 26 45 106 -19 60 -22 61 -102 32z"/>
<path d="M1625 4548 c-33 -17 -62 -32 -64 -35 -3 -2 9 -33 27 -68 l32 -65 62
31 c35 17 64 32 66 34 3 3 -56 135 -60 135 -2 -1 -30 -15 -63 -32z"/>
<path d="M2408 4389 c-635 -49 -1199 -433 -1492 -1015 -51 -102 -124 -290
-115 -298 2 -2 34 -13 71 -24 l67 -20 21 67 c34 105 154 338 223 434 296 410
739 663 1237 707 63 5 121 10 128 10 8 0 12 22 12 75 0 72 -1 75 -22 74 -13
-1 -71 -6 -130 -10z"/>
<path d="M3055 3937 c-2 -6 -13 -37 -25 -67 -11 -30 -20 -56 -20 -58 0 -4 112
-52 121 -52 13 0 72 122 62 130 -4 3 -36 19 -71 33 -45 19 -64 23 -67 14z"/>
<path d="M3261 3776 c-17 -29 -31 -57 -31 -62 0 -12 99 -76 110 -72 5 2 27 27
50 57 l40 55 -60 38 c-34 21 -65 38 -70 38 -5 0 -22 -24 -39 -54z"/>
<path d="M3462 3628 l-43 -52 50 -50 51 -51 52 52 53 53 -50 50 c-27 27 -54
50 -60 50 -5 0 -29 -24 -53 -52z"/>
<path d="M2335 3650 c-376 -80 -684 -344 -819 -704 -87 -232 -88 -540 -1 -770
115 -305 356 -546 659 -660 233 -88 539 -88 772 0 303 114 544 355 659 660 86
229 86 539 0 768 -115 305 -356 546 -659 660 -176 66 -425 85 -611 46z m338
-309 c26 -4 49 -10 51 -12 3 -2 -3 -37 -11 -78 l-17 -73 -44 6 c-25 3 -55 6
-68 6 -23 0 -24 3 -24 80 l0 80 33 -1 c17 0 53 -4 80 -8z m238 -77 c44 -22 69
-40 66 -48 -3 -7 -21 -37 -40 -68 l-36 -55 -60 30 c-34 16 -61 35 -61 41 0 11
37 113 46 128 7 11 8 11 85 -28z m216 -156 c125 -134 201 -300 219 -478 l7
-70 -80 0 -80 0 -7 65 c-13 132 -77 271 -168 366 -27 28 -48 52 -48 55 0 8 93
114 100 114 4 0 29 -24 57 -52z"/>
<path d="M4458 3499 c-32 -16 -58 -32 -58 -35 0 -2 9 -21 19 -42 62 -122 129
-339 162 -528 19 -106 23 -166 23 -334 1 -113 -3 -217 -7 -232 -7 -26 -5 -27
40 -33 27 -3 60 -9 75 -11 25 -5 27 -3 34 53 15 103 9 409 -9 528 -22 140 -67
328 -105 430 -44 122 -96 235 -107 234 -5 0 -36 -13 -67 -30z"/>
<path d="M3639 3453 l-57 -46 36 -50 c19 -27 41 -51 48 -54 18 -7 125 67 117
81 -8 14 -85 116 -87 116 0 -1 -26 -22 -57 -47z"/>
<path d="M3785 3250 c-27 -17 -54 -31 -60 -33 -5 -2 3 -32 20 -66 33 -69 32
-69 119 -31 40 18 46 24 40 43 -11 37 -54 117 -62 116 -4 0 -29 -13 -57 -29z"/>
<path d="M767 2953 c-3 -10 -8 -36 -12 -58 -3 -22 -8 -47 -11 -57 -4 -13 5
-18 38 -23 24 -3 57 -9 74 -12 35 -5 36 -3 49 89 l7 47 -38 10 c-91 23 -102
23 -107 4z"/>
<path d="M730 2667 c0 -24 -3 -59 -6 -76 l-6 -31 74 0 75 0 7 66 c4 37 4 69 1
72 -3 4 -37 8 -76 10 l-69 4 0 -45z"/>
<path d="M1092 2453 c23 -361 191 -715 455 -963 221 -207 512 -351 779 -386
60 -7 61 -6 66 86 l3 54 -77 13 c-165 28 -364 111 -515 215 -95 65 -254 220
-316 308 -136 195 -225 423 -242 626 -3 38 -8 88 -11 112 l-5 42 -72 0 -72 0
7 -107z"/>
<path d="M4150 1994 c-12 -36 -20 -67 -19 -69 15 -14 124 -54 131 -47 8 8 48
119 48 132 0 5 -10 11 -22 14 -13 3 -44 12 -70 20 l-47 15 -21 -65z"/>
<path d="M4050 1770 l-30 -60 37 -23 c93 -58 84 -60 131 25 l32 58 -60 30
c-33 16 -64 30 -70 30 -5 0 -23 -27 -40 -60z"/>
<path d="M3912 1553 c-182 -250 -483 -475 -773 -578 l-77 -27 21 -66 c12 -37
22 -69 24 -71 5 -7 153 50 246 94 194 93 382 229 532 387 73 76 169 195 198
244 6 11 -91 84 -112 84 -5 0 -32 -30 -59 -67z"/>
<path d="M1085 1029 l-50 -51 53 -49 c29 -27 56 -49 60 -49 4 1 27 26 51 56
l44 55 -49 44 c-27 24 -51 44 -54 45 -3 0 -28 -23 -55 -51z"/>
<path d="M1271 866 l-41 -55 62 -45 63 -44 37 56 c21 32 38 60 38 64 0 10 -92
77 -106 78 -7 0 -30 -25 -53 -54z"/>
<path d="M1483 734 c-18 -31 -33 -59 -33 -64 0 -5 29 -24 65 -43 l66 -35 29
59 c17 32 30 63 30 68 0 9 -106 71 -119 71 -3 0 -21 -25 -38 -56z"/>
<path d="M1706 621 c-31 -69 -32 -77 -8 -84 9 -2 40 -14 69 -25 l52 -21 22 67
c12 37 23 69 23 70 1 4 -114 52 -124 52 -4 0 -19 -26 -34 -59z"/>
<path d="M1940 534 c-12 -36 -18 -69 -14 -74 10 -9 134 -43 139 -38 1 2 10 34
18 71 11 51 12 69 4 72 -18 6 -120 35 -123 35 -1 0 -12 -30 -24 -66z"/>
<path d="M2181 474 c-6 -37 -8 -70 -4 -75 4 -4 38 -10 75 -14 l66 -7 7 48 c3
27 7 59 9 71 4 26 -4 29 -85 38 l-55 7 -13 -68z"/>
<path d="M2745 521 l-60 -6 -3 -72 -3 -73 53 1 c29 1 64 4 78 8 25 6 25 7 17
79 -5 39 -12 71 -15 70 -4 -1 -34 -4 -67 -7z"/>
<path d="M2430 441 c0 -79 3 -81 98 -81 l52 0 0 75 0 75 -75 0 -75 0 0 -69z"/>
</g>
</svg>
