<?xml version="1.0" standalone="no"?>
<!DOCTYPE svg PUBLIC "-//W3C//DTD SVG 20010904//EN"
 "http://www.w3.org/TR/2001/REC-SVG-20010904/DTD/svg10.dtd">
<svg version="1.0" xmlns="http://www.w3.org/2000/svg"
 width="512.000000pt" height="512.000000pt" viewBox="0 0 512.000000 512.000000"
 preserveAspectRatio="xMidYMid meet">

<g transform="translate(0.000000,512.000000) scale(0.100000,-0.100000)"
fill="#000000" stroke="none">
<path d="M1993 4832 c-15 -10 -310 -523 -318 -554 -5 -18 0 -32 17 -51 31 -35
436 -267 466 -267 30 0 72 46 72 80 0 36 -19 51 -158 131 -146 84 -150 95 -37
127 169 48 266 63 448 69 213 7 339 -6 522 -52 721 -184 1249 -766 1360 -1501
19 -128 19 -399 0 -526 -30 -200 -78 -353 -172 -550 -61 -127 -65 -139 -54
-167 17 -40 60 -57 98 -39 22 10 43 43 93 143 304 608 270 1336 -90 1917 -79
127 -167 236 -284 354 -204 203 -417 343 -682 447 -370 145 -826 173 -1202 72
-106 -28 -122 -30 -122 -12 0 7 36 75 80 151 85 149 94 182 58 216 -22 20 -72
27 -95 12z"/>
<path d="M2352 3707 c-6 -7 -117 -234 -246 -506 -266 -556 -264 -550 -202
-619 l34 -37 299 -5 c312 -5 326 -7 357 -52 34 -49 52 -5 -524 -1315 -15 -35
-16 -44 -5 -53 14 -11 21 -3 953 1224 211 278 312 419 316 442 8 40 -11 90
-48 124 l-28 25 -270 5 -270 5 -29 33 c-22 25 -29 42 -29 75 0 39 19 72 194
342 106 165 191 305 189 312 -7 19 -676 19 -691 0z"/>
<path d="M822 3464 c-66 -46 -190 -410 -223 -654 -17 -122 -17 -398 0 -520 98
-716 584 -1330 1251 -1583 246 -93 446 -130 710 -130 207 0 327 15 507 63 121
32 143 35 143 20 0 -5 -36 -72 -80 -148 -44 -76 -80 -150 -80 -163 0 -49 75
-88 117 -61 7 4 80 125 163 267 157 272 168 301 133 344 -26 31 -430 261 -459
261 -50 0 -89 -71 -61 -113 8 -12 74 -56 146 -97 86 -49 130 -80 129 -90 -6
-27 -211 -88 -393 -116 -132 -20 -390 -21 -522 0 -526 80 -968 358 -1258 791
-353 526 -408 1192 -146 1772 45 99 45 125 -1 157 -28 20 -48 20 -76 0z"/>
</g>
</svg>
