<?xml version="1.0" standalone="no"?>
<!DOCTYPE svg PUBLIC "-//W3C//DTD SVG 20010904//EN"
 "http://www.w3.org/TR/2001/REC-SVG-20010904/DTD/svg10.dtd">
<svg version="1.0" xmlns="http://www.w3.org/2000/svg"
 width="512.000000pt" height="512.000000pt" viewBox="0 0 512.000000 512.000000"
 preserveAspectRatio="xMidYMid meet">

<g transform="translate(0.000000,512.000000) scale(0.100000,-0.100000)"
fill="#000000" stroke="none">
<path d="M2750 4220 l0 -243 24 22 c13 12 36 45 52 74 26 47 29 61 29 147 0
86 -3 100 -29 147 -16 29 -39 62 -52 74 l-24 22 0 -243z"/>
<path d="M4023 3976 c-95 -31 -188 -109 -231 -193 -51 -100 -59 -233 -19 -332
l25 -61 -179 -170 -180 -169 -62 50 c-73 60 -236 141 -327 164 -81 21 -236 37
-272 29 l-28 -6 0 -884 0 -884 89 0 c49 0 122 7 162 15 40 9 74 13 77 11 2 -3
26 -109 52 -235 45 -217 47 -231 29 -236 -30 -10 -104 -100 -117 -143 -28 -94
-9 -189 51 -258 50 -56 105 -85 177 -91 136 -13 250 75 281 215 27 130 -59
265 -193 302 l-33 10 -49 237 c-27 131 -51 243 -53 249 -2 6 29 31 69 54 93
55 239 202 292 293 22 37 44 66 50 64 6 -2 120 -39 252 -82 l241 -78 6 -65 c9
-88 45 -159 112 -221 91 -82 217 -107 337 -65 75 27 168 119 194 194 57 166
-11 337 -164 412 -59 29 -76 33 -147 33 -71 0 -88 -4 -147 -33 -39 -19 -81
-49 -101 -73 l-34 -39 -249 80 c-137 45 -250 82 -251 84 -2 1 4 37 12 80 17
91 19 237 4 322 -20 114 -75 254 -139 350 l-20 31 147 138 c82 77 162 152 180
168 l31 29 68 -33 c65 -32 74 -34 179 -34 98 0 116 3 167 27 162 76 259 258
230 428 -24 135 -101 237 -220 293 -58 27 -80 32 -162 34 -60 2 -110 -2 -137
-11z"/>
</g>
</svg>
