<?xml version="1.0" standalone="no"?>
<!DOCTYPE svg PUBLIC "-//W3C//DTD SVG 20010904//EN"
 "http://www.w3.org/TR/2001/REC-SVG-20010904/DTD/svg10.dtd">
<svg version="1.0" xmlns="http://www.w3.org/2000/svg"
 width="512.000000pt" height="512.000000pt" viewBox="0 0 512.000000 512.000000"
 preserveAspectRatio="xMidYMid meet">

<g transform="translate(0.000000,512.000000) scale(0.100000,-0.100000)"
fill="#000000" stroke="none">
<path d="M2225 5107 c-126 -49 -189 -155 -171 -285 13 -98 106 -193 201 -208
l45 -6 0 -84 0 -84 -124 0 c-117 0 -125 1 -131 20 -19 60 -96 80 -140 35 l-25
-24 0 -289 c0 -325 0 -327 72 -339 32 -5 41 -1 68 25 16 17 30 38 30 46 0 14
18 16 125 16 l125 0 0 -89 0 -90 -212 -3 c-200 -3 -216 -4 -256 -26 -102 -54
-168 -148 -179 -255 l-6 -56 -441 -3 c-421 -4 -444 -5 -516 -27 -363 -108
-627 -409 -680 -777 -8 -55 -10 -268 -8 -694 4 -601 5 -617 27 -695 106 -378
424 -652 809 -696 l102 -12 0 -168 0 -169 -435 0 c-297 0 -442 -4 -458 -11
-52 -24 -60 -87 -18 -130 l29 -29 2502 0 2502 0 29 29 c42 43 34 106 -18 130
-16 7 -161 11 -458 11 l-435 0 0 169 0 169 73 7 c223 22 452 129 593 277 115
121 206 285 246 443 23 89 23 97 23 720 0 560 -2 639 -17 707 -40 180 -118
327 -242 456 -126 132 -261 213 -441 266 -65 19 -101 20 -506 24 l-437 3 -6
53 c-15 117 -98 227 -202 265 -48 19 -77 21 -249 21 l-195 0 0 90 0 90 125 0
c107 0 125 -2 125 -16 0 -8 14 -29 30 -46 27 -26 36 -30 68 -25 72 12 72 14
72 339 l0 289 -25 24 c-44 45 -121 25 -140 -35 -6 -19 -14 -20 -131 -20 l-124
0 0 84 0 84 45 6 c61 10 133 61 170 120 27 44 30 58 30 130 0 90 -13 123 -69
179 -71 71 -76 72 -426 74 -225 1 -324 -2 -345 -10z m628 -169 c53 -28 64 -92
22 -133 l-24 -25 -291 0 -291 0 -24 25 c-41 40 -31 104 20 133 28 16 558 16
588 0z m-208 -758 l0 -425 -85 0 -85 0 -3 415 c-1 228 0 421 3 428 3 9 27 12
87 10 l83 -3 0 -425z m-345 5 l0 -85 -125 0 -125 0 0 85 0 85 125 0 125 0 0
-85z m770 0 l0 -85 -125 0 -125 0 0 85 0 85 125 0 125 0 0 -85z m150 -624 c37
-20 80 -88 80 -128 l0 -23 -740 0 -740 0 0 28 c0 39 32 93 70 120 l33 22 631
0 c596 0 633 -1 666 -19z m-2370 -1597 l0 -1277 -42 7 c-260 42 -505 249 -593
503 -44 124 -46 175 -43 809 3 533 6 606 21 659 22 75 76 190 118 251 70 102
208 214 326 265 39 17 175 55 206 58 4 1 7 -573 7 -1275z m3248 -1 l-3 -1278
-1535 0 -1535 0 -3 1278 -2 1277 1540 0 1540 0 -2 -1277z m317 1241 c111 -36
207 -96 296 -184 138 -137 207 -278 229 -471 8 -62 10 -284 8 -654 -5 -624 -3
-611 -78 -770 -72 -156 -187 -275 -341 -355 -68 -35 -205 -80 -246 -80 -11 0
-13 216 -13 1274 l0 1273 48 -8 c26 -5 70 -16 97 -25z m-2737 -2711 c-8 -10
-72 -87 -142 -170 l-127 -153 -149 0 -150 0 0 170 0 170 292 0 c276 0 290 -1
276 -17z m1662 -145 c74 -89 137 -165 138 -170 2 -4 -411 -8 -918 -8 -507 0
-920 4 -918 8 2 5 64 81 138 170 l135 162 645 0 645 0 135 -162z m670 -8 l0
-170 -150 0 -149 0 -127 153 c-70 83 -134 160 -142 170 -14 16 0 17 276 17
l292 0 0 -170z"/>
<path d="M1770 2813 c-8 -3 -25 -15 -37 -26 l-23 -20 0 -587 c0 -579 0 -588
21 -614 35 -44 108 -33 137 21 8 15 12 103 12 282 l0 261 255 0 255 0 0 -270
0 -271 25 -24 c33 -34 87 -34 120 0 l25 24 0 585 0 585 -23 26 c-33 39 -91 39
-123 1 -24 -27 -24 -30 -24 -257 l0 -229 -255 0 -255 0 0 220 c0 246 -5 269
-61 289 -18 6 -32 11 -33 10 -1 0 -8 -3 -16 -6z"/>
<path d="M2964 2286 c-53 -17 -126 -67 -158 -109 -81 -106 -97 -265 -31 -291
64 -24 114 8 126 83 17 108 86 167 186 159 57 -5 92 -25 127 -72 17 -23 21
-42 21 -109 0 -142 -44 -197 -321 -403 -84 -62 -159 -123 -168 -135 -24 -35
-20 -67 13 -100 l29 -29 287 0 286 0 24 25 c31 30 33 83 6 116 -18 23 -27 24
-165 29 l-147 5 67 50 c135 101 228 224 253 336 18 76 13 182 -11 246 -29 79
-112 162 -191 191 -66 25 -167 28 -233 8z"/>
</g>
</svg>
